<svg width="14" height="8" viewBox="0 0 14 8" fill="none" xmlns="http://www.w3.org/2000/svg"><path d="M1.92878 1.01433C1.65246 0.754328 1.21769 0.767555 0.957689 1.04387C0.697687 1.32019 0.710914 1.75497 0.987232 2.01497L1.92878 1.01433ZM7.14167 6.86269L6.67089 7.36301C6.9354 7.6119 7.34793 7.6119 7.61244 7.36301L7.14167 6.86269ZM13.2961 2.01497C13.5724 1.75497 13.5856 1.32019 13.3256 1.04387C13.0656 0.767555 12.6309 0.754328 12.3545 1.01433L13.2961 2.01497ZM0.987232 2.01497L6.67089 7.36301L7.61244 6.36237L1.92878 1.01433L0.987232 2.01497ZM7.61244 7.36301L13.2961 2.01497L12.3545 1.01433L6.67089 6.36237L7.61244 7.36301Z" fill="black"/></svg>
