<svg width="13" height="8" viewBox="0 0 13 8" fill="none" xmlns="http://www.w3.org/2000/svg"><path d="M11.7831 7.39924C12.0594 7.65925 12.4942 7.64602 12.7542 7.3697C13.0142 7.09338 13.001 6.65861 12.7247 6.39861L11.7831 7.39924ZM6.57025 1.55088L7.04102 1.05057C6.77652 0.801677 6.36398 0.801677 6.09947 1.05057L6.57025 1.55088ZM0.415815 6.39861C0.139497 6.65861 0.12627 7.09338 0.386272 7.3697C0.646275 7.64602 1.08105 7.65925 1.35737 7.39924L0.415815 6.39861ZM12.7247 6.39861L7.04102 1.05057L6.09947 2.0512L11.7831 7.39924L12.7247 6.39861ZM6.09947 1.05057L0.415815 6.39861L1.35737 7.39924L7.04102 2.0512L6.09947 1.05057Z" fill="white"/></svg>
