<?xml version="1.0" encoding="UTF-8"?>
<svg width="102px" height="42px" viewBox="0 0 102 42" version="1.1" xmlns="http://www.w3.org/2000/svg" xmlns:xlink="http://www.w3.org/1999/xlink">
    <!-- Generator: Sketch 54.1 (76490) - https://sketchapp.com -->
    <title>logo</title>
    <desc>Created with Sketch.</desc>
    <g id="logo" stroke="none" stroke-width="1" fill="none" fill-rule="evenodd">
        <path d="M102,0 L102,42 L59,42 L59,0 L102,0 Z M70.4736251,31.2089918 L69.8423071,31.2448862 C69.6766341,31.2448862 69.5936736,31.1310391 69.5936736,30.9033447 L69.5936736,26.3910324 C69.5936736,24.7970511 68.4077977,24 66.0359217,24 C64.9519792,24 64.0912488,24.1737922 63.4537304,24.5213766 C62.816088,24.8689609 62.4972668,25.3302716 62.4972668,25.9055504 C62.4972668,26.2052754 62.6056487,26.4568994 62.8224124,26.6606641 C63.0519487,26.852464 63.3453486,26.9483035 63.7023638,26.9483035 C64.0084123,26.9483035 64.2570458,26.8763936 64.4483881,26.7325739 C64.6523791,26.5887543 64.7544366,26.3849896 64.7544366,26.1212799 C64.7544366,26.04937 64.7288912,25.9296009 64.6779245,25.7617307 C64.614061,25.6419615 64.5821913,25.5040638 64.5821913,25.3482793 C64.5821913,25.1445146 64.6714761,24.9707224 64.8500457,24.8269027 C65.0412641,24.6830831 65.3600853,24.6111732 65.8063853,24.6111732 C66.3291975,24.6111732 66.6735641,24.7371061 66.8393611,24.9887301 C67.005034,25.240475 67.0879945,25.5939813 67.0879945,26.04937 L67.0879945,27.3078527 C65.3282155,27.3078527 64.0402821,27.5175394 63.224194,27.9370336 C62.407982,28.3565278 62,29.0037163 62,29.8785993 C62,30.5498384 62.203991,31.0591292 62.612097,31.4067136 C63.0328517,31.7423331 63.6449487,31.9100825 64.4483881,31.9100825 C65.6470367,31.9100825 66.5268642,31.4966311 67.0879945,30.6696075 L67.0688974,31.1549687 C67.0688974,31.3108741 67.0433521,31.5325256 66.9923853,31.820165 L70.4736251,31.820165 L70.4736251,31.2089918 Z M65.5386549,30.8494425 C64.9137852,30.8494425 64.6014123,30.453878 64.6014123,29.6628697 C64.6014123,29.087591 64.798955,28.656132 65.1942883,28.3684926 C65.5896216,28.0808532 66.2208157,27.9370336 67.0879945,27.9370336 L67.0879945,29.1236064 C67.024255,29.6389401 66.8456854,30.0584343 66.5524096,30.3819682 C66.2719065,30.693658 65.9338642,30.8494425 65.5386549,30.8494425 Z M81.3260706,31.2089918 L80.6947525,31.2448862 C80.5290796,31.2448862 80.4461191,31.1310391 80.4461191,30.9033447 L80.4461191,26.5707466 C80.4461191,25.6838988 80.2484524,25.0367103 79.8532431,24.6291809 C79.4579098,24.2096867 78.8267157,24 77.959537,24 C77.2709278,24 76.6716035,24.1618274 76.161564,24.4853612 C75.6641731,24.7970511 75.2752881,25.240475 74.994785,25.8157537 L74.994785,24.8090159 C74.994785,24.5692359 75.0266547,24.3595492 75.0903942,24.1797142 L71.6091544,24.1797142 L71.6091544,24.7730006 L72.2403484,24.7371061 C72.4061454,24.7730006 72.4889818,24.8928906 72.4889818,25.0966553 L72.4889818,30.9033447 C72.4889818,31.0951446 72.4061454,31.2089918 72.2403484,31.2448862 L71.6091544,31.2089918 L71.6091544,31.820165 L75.9894427,31.820165 L75.9894427,31.2089918 L75.2434184,31.2448862 C75.0776215,31.2448862 74.994785,31.1310391 74.994785,30.9033447 L74.994785,28.2606883 C74.994785,27.5415899 75.0967185,26.9243738 75.3008335,26.4089192 C75.5048245,25.8935855 75.7599063,25.5040638 76.0659548,25.240475 C76.384652,24.9767653 76.7099215,24.8449104 77.0413914,24.8449104 C77.4239521,24.8449104 77.6662611,24.9767653 77.7683186,25.240475 C77.8830248,25.492099 77.9404399,25.9296009 77.9404399,26.5527389 L77.9404399,30.9033447 C77.9404399,31.0951446 77.8574794,31.2089918 77.6918065,31.2448862 L76.9648793,31.2089918 L76.9648793,31.820165 L81.3260706,31.820165 L81.3260706,31.2089918 Z M90.80601,31.2089918 L90.1751879,31.2448862 C90.009391,31.2448862 89.9265545,31.1310391 89.9265545,30.9033447 L89.9265545,26.3910324 C89.9265545,24.7970511 88.7405545,24 86.3688026,24 C85.2848601,24 84.4241297,24.1737922 83.7864873,24.5213766 C83.1488449,24.8689609 82.8301477,25.3302716 82.8301477,25.9055504 C82.8301477,26.2052754 82.9385295,26.4568994 83.1552932,26.6606641 C83.3848296,26.852464 83.6781054,26.9483035 84.0351207,26.9483035 C84.3411692,26.9483035 84.5898026,26.8763936 84.781145,26.7325739 C84.985136,26.5887543 85.0871935,26.3849896 85.0871935,26.1212799 C85.0871935,26.04937 85.0616481,25.9296009 85.0106813,25.7617307 C84.9469419,25.6419615 84.9150722,25.5040638 84.9150722,25.3482793 C84.9150722,25.1445146 85.004233,24.9707224 85.1828026,24.8269027 C85.3741449,24.6830831 85.6928421,24.6111732 86.1392662,24.6111732 C86.6620784,24.6111732 87.006321,24.7371061 87.1721179,24.9887301 C87.3379149,25.240475 87.4207513,25.5939813 87.4207513,26.04937 L87.4207513,27.3078527 C85.6609724,27.3078527 84.3730389,27.5175394 83.5569509,27.9370336 C82.7408629,28.3565278 82.3327569,29.0037163 82.3327569,29.8785993 C82.3327569,30.5498384 82.5368719,31.0591292 82.9448539,31.4067136 C83.3657326,31.7423331 83.9778296,31.9100825 84.781145,31.9100825 C85.9797936,31.9100825 86.8597451,31.4966311 87.4207513,30.6696075 L87.4016543,31.1549687 C87.4016543,31.3108741 87.3761089,31.5325256 87.3251422,31.820165 L90.80601,31.820165 L90.80601,31.2089918 Z M85.8714118,30.8494425 C85.2465421,30.8494425 84.9341692,30.453878 84.9341692,29.6628697 C84.9341692,29.087591 85.1318359,28.656132 85.5271692,28.3684926 C85.9223785,28.0808532 86.5536966,27.9370336 87.4207513,27.9370336 L87.4207513,29.1236064 C87.3570119,29.6389401 87.1784423,30.0584343 86.8851665,30.3819682 C86.6046633,30.693658 86.2667451,30.8494425 85.8714118,30.8494425 Z M92.3243479,29.2674261 L92.2287387,31.6404508 C92.3435689,31.568541 92.5412356,31.5325256 92.8217387,31.5325256 C92.974763,31.5325256 93.1532086,31.5565761 93.3573236,31.6044354 C93.994842,31.76022 94.4603631,31.8621023 94.7536389,31.9100825 C95.0596874,31.9700275 95.3592876,32 95.6525634,32 C96.6599938,32 97.4697574,31.7662628 98.0818545,31.2987884 C98.6939515,30.81947 99,30.1542738 99,29.3033205 C99,28.6801825 98.8342031,28.1707708 98.5026092,27.7752062 C98.183912,27.3797625 97.5845876,27.0741155 96.7046362,26.858386 L95.384833,26.5348521 C95.0405904,26.4509774 94.7791843,26.3310874 94.6006147,26.1753029 C94.422045,26.0074327 94.3327602,25.8097108 94.3327602,25.5820165 C94.3327602,25.306342 94.4475904,25.0786476 94.6771268,24.8988126 C94.9194359,24.7071336 95.2381331,24.6111732 95.6334664,24.6111732 C96.3220755,24.6111732 96.8641088,24.7790434 97.2593181,25.1145421 C97.6674241,25.4501616 97.8714151,25.8457262 97.8714151,26.3011149 L98.4453181,26.3011149 L98.5600243,24.251624 C98.3815786,24.3475844 98.1902363,24.3954437 97.9862453,24.3954437 C97.7567089,24.3954437 97.4378877,24.3415415 97.0297817,24.2337372 C96.7110845,24.1498625 96.4432301,24.0899175 96.2264664,24.0539022 C96.0097027,24.0180077 95.7673936,24 95.4996632,24 C94.5050055,24 93.7334359,24.2337372 93.1852023,24.7010907 C92.6368447,25.1566003 92.3626659,25.7558087 92.3626659,26.4988368 C92.3626659,27.1101308 92.5347872,27.6134997 92.8791538,28.0089434 C93.2361691,28.404508 93.7845266,28.6980693 94.5241025,28.8898692 L95.9013208,29.2494184 C96.3476209,29.3572227 96.6599938,29.4951204 96.8385634,29.6628697 C97.0297817,29.8186543 97.1255149,30.0343838 97.1255149,30.3100583 C97.1255149,30.6456779 96.997912,30.9093876 96.7429542,31.1010666 C96.5006452,31.2809016 96.1690513,31.3706983 95.7482966,31.3706983 C94.9831753,31.3706983 94.3264359,31.1670544 93.7780783,30.759525 C93.2424934,30.3519956 92.974763,29.8427048 92.974763,29.2314107 L92.3243479,29.2674261 Z" id="Path-2" fill="#FFFFFF" fill-rule="nonzero"></path>
        <path d="M4.14024827,19 C4.56876924,19 4.92166815,19.1070476 5.19894499,19.3211429 C5.47622182,19.5352381 5.61485411,19.8185397 5.61485411,20.1711746 C5.61485411,20.536381 5.47622182,20.8259048 5.19894499,21.04 C4.93426774,21.2540952 4.58136883,21.3611429 4.14024827,21.3611429 C3.71172729,21.3611429 3.36512818,21.2604444 3.10046319,21.0589206 C2.83578595,20.8448254 2.70345345,20.5489524 2.70345345,20.1711746 C2.70345345,19.8185397 2.83578595,19.5352381 3.10046319,19.3211429 C3.36512818,19.1070476 3.71172729,19 4.14024827,19 Z M5.4258112,31.6366984 C5.4258112,33.1226667 5.17373354,34.2181587 4.6695905,34.9234286 C4.1780593,35.6411429 3.43445045,36 2.43877621,36 C1.66996817,36 1.07129754,35.8678095 0.642777788,35.6034286 C0.214259263,35.3389206 0,34.9862857 0,34.5456508 C0,34.2181587 0.107129631,33.9537778 0.321388894,33.752254 C0.535648157,33.5507302 0.825529489,33.4500317 1.19103657,33.4500317 C1.41789052,33.4500317 1.64475673,33.5130159 1.87162294,33.6389841 C2.11108874,33.7648254 2.23082164,33.9852698 2.23082164,34.3000635 C2.23082164,34.3630476 2.21191,34.463746 2.17409896,34.6022857 C2.13628793,34.7408254 2.11738854,34.8351746 2.11738854,34.8855873 C2.11738854,35.200381 2.25602083,35.3578413 2.53329767,35.3578413 C2.72235284,35.3578413 2.86729718,35.2633651 2.96811844,35.0745397 C3.08155154,34.8981587 3.13827422,34.6778413 3.13827422,34.4133333 C3.13827422,34.2747937 3.11936258,34.079619 3.08155154,33.8278095 C2.99332988,33.2359365 2.94921905,32.6629841 2.94921905,32.1089524 L2.94921905,24.3456508 C2.94921905,24.232254 2.92400761,24.1377778 2.87359698,24.0622222 C2.83578595,23.9866667 2.77907552,23.9551746 2.70345345,23.967873 L2.0795775,24.0055873 L2.0795775,23.3822222 L5.4258112,23.3822222 L5.4258112,31.6366984 Z M12.2192347,23.1933968 C13.3660672,23.1933968 14.2799054,23.5081905 14.9603815,24.1377778 C15.6536042,24.7547937 16.0065889,25.6363175 16.0190905,26.7822222 L16.0190905,27.4811429 L10.574424,27.4811429 C10.574424,28.5640635 10.769779,29.3889524 11.1604889,29.9555556 C11.5637984,30.5222857 12.1624875,30.8119365 12.9564579,30.8245079 C13.5488104,30.8245079 14.05929,30.679619 14.4877742,30.3900952 C14.916381,30.087873 15.2313708,29.7226667 15.4331113,29.2944762 L15.9434684,29.6533333 C15.6536042,30.2703492 15.1872477,30.7489524 14.5445214,31.0888889 C13.9142966,31.4289524 13.1518251,31.5989841 12.2569844,31.5989841 C10.7571794,31.5989841 9.66067162,31.2589206 8.96748565,30.5789206 C8.27427517,29.8989206 7.92767606,28.8474921 7.92767606,27.4245079 C7.92767606,25.976381 8.28688702,24.912254 9.00528443,24.232254 C9.72369409,23.5396825 10.7949904,23.1933968 12.2192347,23.1933968 Z M12.1624875,23.8355556 C11.6205211,23.8355556 11.2235114,24.1189841 10.9714337,24.6855873 C10.7193683,25.239619 10.5933356,25.9636825 10.5933356,26.8577778 L13.1077021,26.8577778 C13.2338205,26.8577778 13.3283175,26.8137143 13.3913155,26.7255873 C13.4543134,26.6374603 13.4858124,26.4737778 13.4858124,26.2345397 C13.4858124,25.416 13.3786913,24.8115556 13.1644492,24.4212063 C12.9628312,24.0307302 12.628844,23.8355556 12.1624875,23.8355556 Z M22.8267926,28.727873 L23.4695189,28.6900317 C23.4695189,29.3323175 23.7341349,29.8674286 24.2634894,30.295619 C24.805468,30.7236825 25.4545676,30.9377778 26.2107883,30.9377778 C26.6266484,30.9377778 26.9543849,30.8434286 27.1938752,30.6544762 C27.4458671,30.4529524 27.5719856,30.176 27.5719856,29.8233651 C27.5719856,29.5337143 27.4773661,29.3070476 27.2883722,29.1433651 C27.1118798,28.9671111 26.8031408,28.8222222 26.3620325,28.7089524 L25.0008352,28.3311746 C24.2698627,28.1296508 23.7278841,27.8212063 23.375022,27.4055873 C23.0346614,26.9900952 22.8645424,26.4612063 22.8645424,25.8189206 C22.8645424,25.0382222 23.1355317,24.4085079 23.6775103,23.9300317 C24.2193663,23.4389841 24.9819603,23.1933968 25.9650472,23.1933968 C26.2296632,23.1933968 26.4691535,23.2123175 26.6833956,23.2500317 C26.8976377,23.287873 27.1623763,23.3507302 27.4773661,23.4389841 C27.8807246,23.552254 28.195837,23.6088889 28.4227032,23.6088889 C28.6243212,23.6088889 28.8134377,23.5586032 28.9898075,23.4577778 L28.8764357,25.6111746 L28.3092088,25.6111746 C28.3092088,25.1325714 28.1075909,24.7170794 27.7042323,24.3644444 C27.3136204,24.0119365 26.7778926,23.8355556 26.0972939,23.8355556 C25.7066821,23.8355556 25.3915697,23.936381 25.1520794,24.1377778 C24.9252131,24.3267302 24.8118413,24.5659683 24.8118413,24.855619 C24.8118413,25.0948571 24.8999649,25.3026032 25.0764573,25.4789841 C25.2529496,25.6426667 25.5113148,25.7685079 25.8515529,25.8567619 L27.1560029,26.1966984 C28.025718,26.4233651 28.6180705,26.7445079 28.9331828,27.16 C29.2607968,27.575619 29.424665,28.1107302 29.424665,28.7655873 C29.424665,29.6596825 29.1221767,30.3586032 28.5172002,30.8622222 C27.9122236,31.3533968 27.1118798,31.5989841 26.1162914,31.5989841 C25.8264272,31.5989841 25.5301897,31.5674921 25.2277014,31.5045079 C24.9378373,31.4540952 24.4778541,31.3470476 23.8476293,31.1833651 C23.6460113,31.1329524 23.4695189,31.1078095 23.3182748,31.1078095 C23.0410347,31.1078095 22.8456675,31.1456508 22.7321731,31.2212063 L22.8267926,28.727873 Z M40.4966185,30.767873 L40.4966185,31.4100317 L37.0370007,31.4100317 C37.0999987,31.2212063 37.1314977,30.944127 37.1314977,30.5789206 L37.1314977,29.7288889 C36.5643934,30.975619 35.6065547,31.5989841 34.2579816,31.5989841 C33.4386404,31.5989841 32.8400371,31.3785397 32.4619268,30.9377778 C32.0838164,30.4844444 31.8948225,29.7729524 31.8948225,28.8034286 L31.8948225,24.3267302 C31.8948225,24.0874921 31.8128271,23.967873 31.6489589,23.967873 L31.0251075,24.0055873 L31.0251075,23.3822222 L34.3713534,23.3822222 L34.3713534,28.9166984 C34.3713534,29.5589841 34.4217273,30.0185397 34.5225976,30.295619 C34.6360919,30.5725714 34.8628356,30.7111111 35.2031962,30.7111111 C35.5056845,30.7111111 35.8017994,30.5789206 36.0917861,30.3145397 C36.3942744,30.0500317 36.6400155,29.6596825 36.8290094,29.1433651 C37.0181259,28.6144762 37.1188736,27.9848889 37.1314977,27.2544762 L37.1314977,24.3456508 C37.1314977,24.0937143 37.0558756,23.967873 36.9046315,23.967873 L36.1674082,24.0055873 L36.1674082,23.3822222 L39.627026,23.3822222 L39.627026,30.4467302 C39.627026,30.6733968 39.7088988,30.7930159 39.8727671,30.8055873 L40.4966185,30.767873 Z M44.2181558,19 C44.64664,19 44.9932514,19.1070476 45.2578674,19.3211429 C45.53523,19.5352381 45.67385,19.8185397 45.67385,20.1711746 C45.67385,20.536381 45.53523,20.8259048 45.2578674,21.04 C44.9932514,21.2540952 44.64664,21.3611429 44.2181558,21.3611429 C43.7895491,21.3611429 43.4366869,21.2540952 43.1594468,21.04 C42.8947083,20.8259048 42.7624616,20.536381 42.7624616,20.1711746 C42.7624616,19.8185397 42.8947083,19.5352381 43.1594468,19.3211429 C43.4366869,19.1070476 43.7895491,19 44.2181558,19 Z M45.503731,30.4467302 C45.503731,30.6985397 45.5856038,30.8181587 45.7494721,30.8055873 L46.3733235,30.767873 L46.3733235,31.4100317 L42.1574851,31.4100317 L42.1574851,30.767873 L42.7813365,30.8055873 L42.8190862,30.8055873 C42.9577063,30.8055873 43.0270776,30.6859683 43.0270776,30.4467302 L43.0270776,24.3456508 C43.0270776,24.1315556 42.9514555,24.0055873 42.8002114,23.967873 L42.1763599,24.0055873 L42.1763599,23.3822222 L45.503731,23.3822222 L45.503731,30.4467302 Z M48.4021276,28.727873 L49.0448539,28.6900317 C49.0448539,29.3323175 49.3095925,29.8674286 49.8389469,30.295619 C50.3809255,30.7236825 51.0299026,30.9377778 51.7861233,30.9377778 C52.202106,30.9377778 52.5297199,30.8434286 52.7692102,30.6544762 C53.0213246,30.4529524 53.1473206,30.176 53.1473206,29.8233651 C53.1473206,29.5337143 53.0528236,29.3070476 52.8637072,29.1433651 C52.6873374,28.9671111 52.3784758,28.8222222 51.9373675,28.7089524 L50.5761702,28.3311746 C49.8451977,28.1296508 49.3032191,27.8212063 48.950357,27.4055873 C48.6101189,26.9900952 48.4398774,26.4612063 48.4398774,25.8189206 C48.4398774,25.0382222 48.7108667,24.4085079 49.2528453,23.9300317 C49.7948239,23.4389841 50.5572953,23.1933968 51.5403822,23.1933968 C51.8049982,23.1933968 52.0444885,23.2123175 52.2587306,23.2500317 C52.4730953,23.287873 52.7377112,23.3507302 53.0528236,23.4389841 C53.4560596,23.552254 53.771172,23.6088889 53.9980382,23.6088889 C54.1997788,23.6088889 54.3887727,23.5586032 54.565265,23.4577778 L54.4517706,25.6111746 L53.8846664,25.6111746 C53.8846664,25.1325714 53.6829258,24.7170794 53.2796898,24.3644444 C52.8889554,24.0119365 52.3533501,23.8355556 51.6727515,23.8355556 C51.282017,23.8355556 50.9669047,23.936381 50.7274143,24.1377778 C50.5005481,24.3267302 50.3871763,24.5659683 50.3871763,24.855619 C50.3871763,25.0948571 50.4754225,25.3026032 50.6517923,25.4789841 C50.8282846,25.6426667 51.0866498,25.7685079 51.4270104,25.8567619 L52.7314605,26.1966984 C53.601053,26.4233651 54.1934054,26.7445079 54.5085178,27.16 C54.8362543,27.575619 55,28.1107302 55,28.7655873 C55,29.6596825 54.6975117,30.3586032 54.0926577,30.8622222 C53.4876812,31.3533968 52.6873374,31.5989841 51.6916264,31.5989841 C51.4017622,31.5989841 51.1055247,31.5674921 50.8030364,31.5045079 C50.5131722,31.4540952 50.053189,31.3470476 49.4229643,31.1833651 C49.2213463,31.1329524 49.0448539,31.1078095 48.8936098,31.1078095 C48.6163697,31.1078095 48.4210025,31.1456508 48.3076307,31.2212063 L48.4021276,28.727873 Z" id="Shape" fill="#FFFFFF" fill-rule="nonzero"></path>
    </g>
</svg>